<?xml version="1.0" encoding="UTF-8" standalone="no"?>
<svg
   xmlns:dc="http://purl.org/dc/elements/1.1/"
   xmlns:cc="http://creativecommons.org/ns#"
   xmlns:rdf="http://www.w3.org/1999/02/22-rdf-syntax-ns#"
   xmlns:svg="http://www.w3.org/2000/svg"
   xmlns="http://www.w3.org/2000/svg"
   xmlns:sodipodi="http://sodipodi.sourceforge.net/DTD/sodipodi-0.dtd"
   xmlns:inkscape="http://www.inkscape.org/namespaces/inkscape"
   enable-background="new 0 0 512 512"
   height="512px"
   id="Layer_1"
   version="1.1"
   viewBox="0 0 512 512"
   width="512px"
   xml:space="preserve"
   inkscape:version="0.91 r13725"
   sodipodi:docname="fundrising.svg"><metadata
     id="metadata9"><rdf:RDF><cc:Work
         rdf:about=""><dc:format>image/svg+xml</dc:format><dc:type
           rdf:resource="http://purl.org/dc/dcmitype/StillImage" /><dc:title /></cc:Work></rdf:RDF></metadata><defs
     id="defs7" /><sodipodi:namedview
     pagecolor="#ffffff"
     bordercolor="#666666"
     borderopacity="1"
     objecttolerance="10"
     gridtolerance="10"
     guidetolerance="10"
     inkscape:pageopacity="0"
     inkscape:pageshadow="2"
     inkscape:window-width="1366"
     inkscape:window-height="711"
     id="namedview5"
     showgrid="false"
     inkscape:zoom="0.32593203"
     inkscape:cx="337.24275"
     inkscape:cy="261.5524"
     inkscape:window-x="0"
     inkscape:window-y="25"
     inkscape:window-maximized="1"
     inkscape:current-layer="Layer_1" /><g
     transform="translate(37.728814,-106.23729)"
     style="font-style:normal;font-weight:normal;font-size:40px;line-height:125%;font-family:Sans;letter-spacing:0px;word-spacing:0px;fill:#000000;fill-opacity:1;stroke:none;stroke-width:1px;stroke-linecap:butt;stroke-linejoin:miter;stroke-opacity:1"
     id="flowRoot4156"><path
       d="m 246.2793,525.63319 c 36.5,0 64,-17.5 86,-46.5 l -24.5,-22 c -17,23 -34.5,35.5 -59,35.5 -41,0 -67.5,-34 -76,-90.5 l 106.5,0 0,-24 -109,0 c -0.5,-6 -0.5,-12.5 -0.5,-19 0,-5 0,-10 0.5,-14.5 l 129,0 0,-24.5 -127,0 c 8.5,-57.5 35.5,-92.5 79.5,-92.5 21,0 37.5,12 51.5,29.5 l 24.5,-23.5 c -17.5,-22 -44.5,-39 -74.5,-39 -65.5,0 -111.5,47 -123,125.5 l -32.000003,2.5 0,22 29.500003,0 c -0.5,5 -0.5,10.5 -0.5,16 0,6 0,12 0.5,18 l -29.500003,2 0,21.5 32.000003,0 c 11.5,78 56,123.5 116,123.5 z"
       style="font-style:normal;font-variant:normal;font-weight:normal;font-stretch:normal;font-size:500px;font-family:'Source Sans Pro';-inkscape-font-specification:'Source Sans Pro';fill:#3e606f;fill-opacity:1"
       id="path4137" /></g></svg>