<?xml version="1.0" encoding="UTF-8" standalone="no"?>
<svg
   xmlns:dc="http://purl.org/dc/elements/1.1/"
   xmlns:cc="http://creativecommons.org/ns#"
   xmlns:rdf="http://www.w3.org/1999/02/22-rdf-syntax-ns#"
   xmlns:svg="http://www.w3.org/2000/svg"
   xmlns="http://www.w3.org/2000/svg"
   xmlns:sodipodi="http://sodipodi.sourceforge.net/DTD/sodipodi-0.dtd"
   xmlns:inkscape="http://www.inkscape.org/namespaces/inkscape"
   enable-background="new 0 0 512 512"
   height="512px"
   id="Layer_1"
   version="1.1"
   viewBox="0 0 512 512"
   width="512px"
   xml:space="preserve"
   inkscape:version="0.91 r13725"
   sodipodi:docname="law.svg"><metadata
     id="metadata9"><rdf:RDF><cc:Work
         rdf:about=""><dc:format>image/svg+xml</dc:format><dc:type
           rdf:resource="http://purl.org/dc/dcmitype/StillImage" /><dc:title /></cc:Work></rdf:RDF></metadata><defs
     id="defs7" /><sodipodi:namedview
     pagecolor="#ffffff"
     bordercolor="#666666"
     borderopacity="1"
     objecttolerance="10"
     gridtolerance="10"
     guidetolerance="10"
     inkscape:pageopacity="0"
     inkscape:pageshadow="2"
     inkscape:window-width="1366"
     inkscape:window-height="711"
     id="namedview5"
     showgrid="false"
     inkscape:zoom="0.4609375"
     inkscape:cx="-301.55933"
     inkscape:cy="256"
     inkscape:window-x="0"
     inkscape:window-y="25"
     inkscape:window-maximized="1"
     inkscape:current-layer="Layer_1" /><g
     transform="translate(37.728814,-106.23729)"
     style="font-style:normal;font-weight:normal;font-size:40px;line-height:125%;font-family:Sans;letter-spacing:0px;word-spacing:0px;fill:#000000;fill-opacity:1;stroke:none;stroke-width:1px;stroke-linecap:butt;stroke-linejoin:miter;stroke-opacity:1"
     id="flowRoot4156"><path
       d="m 163.2793,345.63319 c 0,-20.5 11.5,-33 30.5,-43.5 41.5,24 101,33.5 101,78.5 0,22 -10.5,33.5 -30,42.5 -41.5,-24.5 -101.5,-33.5 -101.5,-77.5 z m 59.5,206 c 47,0 80.5,-29 80.5,-68.5 0,-17 -5.5,-30 -15,-41 25.5,-14.5 42.5,-33 42.5,-64.5 0,-92 -138.5,-82.5 -138.5,-136.5 0,-17 11.5,-31.5 39.5,-31.5 22,0 39.5,10 55.5,23 l 20,-26.5 c -19,-15.5 -45.5,-28.5 -77,-28.5 -50,0 -76,30.5 -76,65 0,17.5 6,30.5 16,41 -25,14 -43,35.5 -43,64.5 0,92.5 138,80 138,137 0,19 -16,34.5 -42.5,34.5 -26.5,0 -45,-10 -61.5,-26 l -25,22.5 c 20.5,22 51,35.5 86.5,35.5 z"
       style="font-style:normal;font-variant:normal;font-weight:normal;font-stretch:normal;font-size:500px;font-family:'Source Sans Pro';-inkscape-font-specification:'Source Sans Pro';fill:#3e606f;fill-opacity:1"
       id="path4137"
       inkscape:connector-curvature="0" /></g></svg>