<?xml version="1.0" encoding="utf-8"?>
<svg viewBox="0 0 230 50" version="1.1" xmlns="http://www.w3.org/2000/svg">
  <title>Group</title>
  <desc>Created with Sketch.</desc>
  <g id="Page-1" stroke="none" stroke-width="1" fill="none" fill-rule="evenodd">
    <g id="Group">
      <g id="Group-11" transform="translate(11.000000, 24.000000)">
        <path d="M21.3246,15.528 C21.4596,15.815 17.4566,19.701 17.4566,19.701 L18.3986,20.722 C19.5326,21.843 21.3706,21.843 22.5036,20.722 C23.6376,19.6 23.6376,17.781 22.5036,16.658 L21.3246,15.528 Z" id="Fill-3" fill="#005357"/>
        <path d="M15.834,11.9931 C16.967,10.8711 18.806,10.8711 19.94,11.9931 C21.073,13.1151 21.073,14.9341 19.94,16.0561 L15.219,20.7271 C14.085,21.8491 12.247,21.8491 11.113,20.7271 C9.98,19.6051 9.98,17.7861 11.113,16.6641 L15.834,11.9931 Z" id="Fill-5" fill="#008087"/>
        <path d="M9.778,16.6881 C8.644,17.8101 6.806,17.8101 5.673,16.6881 C4.539,15.5661 4.539,13.7471 5.673,12.6251 L11.874,6.4731 C13.007,5.3511 14.846,5.3511 15.979,6.4731 C17.113,7.5951 17.113,9.4141 15.979,10.5361 L9.778,16.6881 Z" id="Fill-7" fill="#008087"/>
        <path d="M5.0093,11.9684 C3.8753,13.0904 2.0373,13.0904 0.9033,11.9684 C-0.2307,10.8464 -0.2307,9.0274 0.9033,7.9054 L7.1043,1.7534 C8.2383,0.6314 10.0763,0.6314 11.2103,1.7534 C12.3443,2.8754 12.3433,4.6944 11.2103,5.8164 L5.0093,11.9684 Z" id="Fill-9" fill="#008087"/>
      </g>
      <g id="Group-22">
        <path d="M11.7984,30.5686 C10.6764,31.6906 8.8574,31.6906 7.7354,30.5686 C6.6124,29.4466 6.6134,27.6276 7.7354,26.5056 L12.0644,22.0686 C13.1874,20.9466 15.0454,21.1386 16.1674,22.2606 C17.2904,23.3826 17.2894,25.2006 16.1674,26.3236 L11.7984,30.5686 Z" id="Fill-12" fill="#008087"/>
        <path d="M49.3271,25.5803 C54.9811,19.9263 54.9811,10.7603 49.3261,5.1063 C43.6731,-0.5477 34.5061,-0.5477 28.8511,5.1063 L22.3681,11.5893 C21.2461,12.7123 21.2461,14.5313 22.3681,15.6523 C23.4901,16.7743 25.3091,16.7743 26.4311,15.6523 L32.0151,10.0683 L48.4271,26.4803 L49.3271,25.5803 Z" id="Fill-14" fill="#008087"/>
        <path d="M47.5358,26.9552 L31.9898,11.4072 L27.0878,16.3092 C25.6048,17.7912 23.1938,17.7912 21.7118,16.3092 C20.2288,14.8272 20.2288,12.4152 21.7118,10.9332 L26.6138,6.0312 L25.6878,5.1062 C20.0338,-0.5478 10.8678,-0.5478 5.2138,5.1052 C-0.4402,10.7602 -0.4402,19.9262 5.2138,25.5802 L6.2808,26.6472 L11.4428,21.3032 C12.8778,19.9632 15.2238,19.9162 16.7058,21.3992 C17.7218,22.4152 18.0458,23.2652 17.9978,24.6042 C20.0078,23.4082 21.9278,24.3782 22.6458,25.0972 C23.6628,26.1132 23.9818,27.5672 23.6038,28.8582 C24.8778,28.4862 26.2148,28.6102 27.2268,29.5902 C27.2258,29.5912 27.2228,29.5912 27.2208,29.5932 C29.6258,31.7822 27.9778,34.2822 27.9778,34.2822 C27.9778,34.2822 29.9128,33.8872 31.1758,35.1412 C32.9278,36.6872 32.3768,38.6972 32.3768,38.6972 L34.9248,41.2282 C36.0468,42.3502 37.8658,42.3502 38.9878,41.2282 C40.1098,40.1062 40.1098,38.2872 38.9878,37.1662 L31.9578,30.1362 L32.5918,29.4572 L39.6438,36.5092 C40.7668,37.6302 42.5858,37.6302 43.7078,36.5092 C44.8298,35.3862 44.8298,33.5682 43.7078,32.4462 L36.5168,25.2552 L37.0938,24.6382 L43.4728,31.0182 C44.5948,32.1392 46.4138,32.1392 47.5358,31.0182 C48.6578,29.8962 48.6578,28.0772 47.5358,26.9552" id="Fill-16" fill="#005357"/>
        <path d="M177.726,45.593 L179.716,45.593 C180.21,45.593 180.592,45.655 180.861,45.778 C181.132,45.901 181.313,46.056 181.406,46.241 C181.499,46.426 181.544,46.65 181.544,46.912 C181.544,47.498 181.292,47.954 180.787,48.278 C180.281,48.602 179.543,48.764 178.571,48.764 C177.529,48.764 176.767,48.631 176.285,48.364 C175.803,48.098 175.562,47.688 175.562,47.132 C175.562,46.8 175.633,46.507 175.776,46.253 C175.919,45.998 176.129,45.762 176.407,45.546 C176.723,45.577 177.162,45.593 177.726,45.593 L177.726,45.593 Z M177.234,34.998 C177.507,34.556 177.93,34.334 178.501,34.334 C179.064,34.334 179.483,34.583 179.757,35.079 C180.03,35.577 180.168,36.301 180.168,37.249 C180.168,38.152 180.027,38.823 179.745,39.263 C179.463,39.703 179.056,39.922 178.524,39.922 C177.938,39.922 177.507,39.685 177.234,39.211 C176.96,38.736 176.823,38.014 176.823,37.041 C176.823,36.123 176.96,35.442 177.234,34.998 L177.234,34.998 Z M184.634,33.327 L180.457,33.327 C180.171,33.28 179.878,33.238 179.577,33.199 C179.277,33.161 178.93,33.141 178.536,33.141 C177.826,33.141 177.165,33.216 176.552,33.367 C175.938,33.517 175.406,33.755 174.954,34.079 C174.503,34.403 174.148,34.821 173.89,35.334 C173.631,35.847 173.502,36.462 173.502,37.18 C173.502,37.921 173.656,38.567 173.965,39.118 C174.273,39.67 174.728,40.115 175.33,40.455 C174.929,40.763 174.603,41.047 174.353,41.306 C174.102,41.564 173.901,41.852 173.751,42.168 C173.6,42.484 173.525,42.823 173.525,43.186 C173.525,43.625 173.598,43.996 173.745,44.297 C173.891,44.598 174.127,44.864 174.451,45.095 C173.949,45.358 173.56,45.674 173.282,46.044 C173.005,46.414 172.866,46.82 172.866,47.26 C172.866,47.807 173.002,48.258 173.276,48.613 C173.55,48.969 173.938,49.248 174.439,49.452 C174.941,49.656 175.546,49.797 176.256,49.875 C176.966,49.951 177.757,49.99 178.629,49.99 C179.824,49.99 180.858,49.834 181.729,49.522 C182.602,49.209 183.271,48.755 183.737,48.162 C184.204,47.568 184.438,46.858 184.438,46.033 C184.438,44.976 184.117,44.197 183.477,43.695 C182.837,43.194 181.872,42.943 180.584,42.943 L177.714,42.943 C177.29,42.943 176.962,42.91 176.731,42.845 C176.499,42.779 176.335,42.685 176.239,42.561 C176.142,42.438 176.094,42.26 176.094,42.028 C176.094,41.627 176.287,41.253 176.673,40.906 C177.159,41.045 177.784,41.115 178.547,41.115 C180.129,41.115 181.326,40.767 182.14,40.073 C182.954,39.379 183.361,38.36 183.361,37.018 C183.361,36.494 183.29,36.044 183.147,35.67 C183.005,35.296 182.825,35.001 182.609,34.785 L182.656,34.657 L184.634,34.877 L184.634,33.327 Z M167.386,33.234 L165.928,33.234 L162.757,33.327 L162.757,34.113 C163.127,34.191 163.388,34.281 163.538,34.385 C163.689,34.489 163.801,34.625 163.874,34.791 C163.947,34.957 163.993,35.176 164.013,35.45 C164.032,35.724 164.041,36.146 164.041,36.717 L164.041,41.473 C164.041,42.206 164.017,42.712 163.966,42.989 C163.916,43.267 163.819,43.487 163.677,43.648 C163.534,43.811 163.278,43.942 162.908,44.042 L162.908,44.806 L168.613,44.806 L168.613,44.042 C168.227,43.973 167.953,43.856 167.791,43.689 C167.629,43.524 167.521,43.294 167.467,43.001 C167.413,42.707 167.386,42.195 167.386,41.462 L167.386,37.77 C167.386,37.369 167.398,37.068 167.421,36.868 C167.444,36.667 167.492,36.468 167.565,36.272 C167.639,36.075 167.762,35.882 167.936,35.693 C168.109,35.504 168.298,35.358 168.503,35.253 C168.707,35.149 168.894,35.097 169.064,35.097 C169.419,35.097 169.702,35.216 169.914,35.455 C170.127,35.695 170.298,36.038 170.429,36.486 L172.524,36.486 L172.524,33.292 C172.008,33.192 171.513,33.141 171.042,33.141 C170.349,33.141 169.704,33.288 169.11,33.581 C168.516,33.874 167.937,34.352 167.375,35.016 L167.224,34.981 L167.386,33.234 Z M154.061,37.851 C154.13,36.717 154.34,35.85 154.692,35.247 C155.043,34.646 155.515,34.345 156.109,34.345 C156.726,34.345 157.173,34.634 157.451,35.213 C157.729,35.791 157.884,36.671 157.914,37.851 L154.061,37.851 Z M160.101,41.681 C159.553,42.237 159.044,42.625 158.574,42.845 C158.103,43.064 157.574,43.174 156.988,43.174 C155.986,43.174 155.239,42.845 154.749,42.185 C154.259,41.525 154.01,40.498 154.003,39.101 L161.339,39.101 C161.332,38.19 161.25,37.415 161.097,36.775 C160.95,36.15 160.73,35.595 160.436,35.109 C160.19,34.7 159.877,34.351 159.499,34.061 C159.121,33.772 158.668,33.546 158.14,33.384 C157.611,33.222 156.996,33.141 156.294,33.141 C155.16,33.141 154.165,33.375 153.308,33.841 C152.452,34.308 151.791,34.994 151.324,35.901 C150.857,36.808 150.624,37.886 150.624,39.136 C150.624,41.072 151.077,42.532 151.983,43.515 C152.89,44.499 154.242,44.991 156.04,44.991 C157.042,44.991 157.929,44.817 158.701,44.47 C159.472,44.123 160.251,43.533 161.039,42.7 L160.101,41.681 Z M140.978,37.064 C140.978,36.671 141.086,36.311 141.302,35.983 C141.518,35.655 141.792,35.402 142.124,35.225 C142.455,35.047 142.791,34.959 143.13,34.959 C143.833,34.959 144.35,35.333 144.681,36.08 C145.013,36.829 145.178,37.963 145.178,39.483 C145.178,40.864 144.992,41.927 144.618,42.671 C144.244,43.416 143.701,43.788 142.992,43.788 C142.305,43.788 141.797,43.562 141.47,43.111 C141.142,42.66 140.978,41.959 140.978,41.011 L140.978,37.064 Z M137.634,44.783 L139.115,44.991 L139.971,44.331 C140.982,44.771 142.096,44.991 143.316,44.991 C144.488,44.991 145.476,44.765 146.278,44.314 C147.08,43.863 147.684,43.188 148.089,42.289 C148.494,41.391 148.697,40.273 148.697,38.939 C148.697,37.01 148.353,35.562 147.667,34.593 C146.98,33.626 145.95,33.141 144.577,33.141 C144.13,33.141 143.709,33.209 143.316,33.344 C142.922,33.479 142.552,33.662 142.205,33.894 C141.857,34.125 141.453,34.453 140.99,34.877 L140.978,34.866 L140.978,28.235 L139.555,28.235 L136.326,28.397 L136.326,29.161 C136.65,29.23 136.883,29.303 137.026,29.38 C137.169,29.457 137.283,29.558 137.368,29.682 C137.452,29.805 137.514,29.974 137.553,30.19 C137.591,30.407 137.614,30.661 137.622,30.954 C137.63,31.248 137.634,31.672 137.634,32.227 L137.634,44.783 Z M126.09,41.681 L126.09,44.447 C127.649,44.81 129.065,44.991 130.337,44.991 C131.04,44.991 131.682,44.92 132.265,44.777 C132.847,44.634 133.346,44.417 133.763,44.123 C134.18,43.83 134.504,43.458 134.735,43.006 C134.966,42.555 135.082,42.017 135.082,41.392 C135.082,40.821 134.962,40.322 134.723,39.894 C134.484,39.465 134.137,39.087 133.682,38.76 C133.226,38.432 132.636,38.117 131.911,37.817 C131.116,37.485 130.58,37.22 130.302,37.024 C130.024,36.827 129.832,36.624 129.724,36.416 C129.616,36.208 129.562,35.957 129.562,35.664 C129.562,35.247 129.712,34.924 130.013,34.692 C130.315,34.461 130.719,34.345 131.229,34.345 C131.583,34.345 131.888,34.397 132.143,34.501 C132.398,34.605 132.63,34.792 132.843,35.062 C133.055,35.333 133.249,35.714 133.427,36.208 L134.955,36.208 L134.955,33.512 C134.098,33.357 133.4,33.258 132.86,33.211 C132.32,33.165 131.769,33.141 131.205,33.141 C130.249,33.141 129.398,33.276 128.654,33.546 C127.909,33.816 127.336,34.206 126.936,34.715 C126.534,35.225 126.333,35.826 126.333,36.52 C126.333,36.945 126.414,37.331 126.576,37.677 C126.738,38.025 126.958,38.339 127.236,38.621 C127.514,38.903 127.839,39.155 128.214,39.379 C128.588,39.603 128.987,39.807 129.412,39.992 C130.167,40.323 130.702,40.592 131.014,40.796 C131.327,41.001 131.55,41.215 131.686,41.439 C131.821,41.662 131.888,41.932 131.888,42.249 C131.888,42.75 131.739,43.132 131.443,43.395 C131.146,43.657 130.708,43.788 130.129,43.788 C129.458,43.788 128.921,43.613 128.521,43.261 C128.119,42.91 127.827,42.384 127.642,41.681 L126.09,41.681 Z M123.411,28.235 L121.965,28.235 L118.759,28.397 L118.759,29.161 C119.083,29.222 119.319,29.292 119.465,29.369 C119.612,29.446 119.726,29.548 119.807,29.676 C119.887,29.803 119.945,29.973 119.98,30.185 C120.015,30.397 120.038,30.659 120.049,30.972 C120.061,31.284 120.067,31.772 120.067,32.435 L120.067,41.462 C120.067,41.955 120.059,42.336 120.044,42.601 C120.028,42.868 119.993,43.076 119.94,43.227 C119.886,43.377 119.822,43.501 119.748,43.597 C119.675,43.693 119.573,43.778 119.442,43.852 C119.311,43.925 119.129,43.988 118.898,44.042 L118.898,44.806 L124.569,44.806 L124.569,44.042 C124.175,43.942 123.907,43.809 123.764,43.643 C123.621,43.477 123.527,43.255 123.481,42.978 C123.434,42.7 123.411,42.195 123.411,41.462 L123.411,28.235 Z M110.236,37.851 C110.306,36.717 110.516,35.85 110.867,35.247 C111.218,34.646 111.69,34.345 112.285,34.345 C112.902,34.345 113.349,34.634 113.627,35.213 C113.905,35.791 114.059,36.671 114.09,37.851 L110.236,37.851 Z M116.277,41.681 C115.729,42.237 115.22,42.625 114.749,42.845 C114.279,43.064 113.75,43.174 113.164,43.174 C112.161,43.174 111.414,42.845 110.925,42.185 C110.435,41.525 110.186,40.498 110.178,39.101 L117.515,39.101 C117.507,38.19 117.426,37.415 117.272,36.775 C117.125,36.15 116.906,35.595 116.612,35.109 C116.366,34.7 116.053,34.351 115.675,34.061 C115.297,33.772 114.844,33.546 114.315,33.384 C113.787,33.222 113.171,33.141 112.47,33.141 C111.336,33.141 110.34,33.375 109.484,33.841 C108.627,34.308 107.966,34.994 107.499,35.901 C107.032,36.808 106.799,37.886 106.799,39.136 C106.799,41.072 107.253,42.532 108.159,43.515 C109.065,44.499 110.417,44.991 112.215,44.991 C113.218,44.991 114.105,44.817 114.877,44.47 C115.648,44.123 116.427,43.533 117.214,42.7 L116.277,41.681 Z M97.154,37.064 C97.154,36.671 97.262,36.311 97.478,35.983 C97.694,35.655 97.968,35.402 98.299,35.225 C98.631,35.047 98.967,34.959 99.306,34.959 C100.008,34.959 100.525,35.333 100.857,36.08 C101.188,36.829 101.355,37.963 101.355,39.483 C101.355,40.864 101.168,41.927 100.793,42.671 C100.419,43.416 99.877,43.788 99.167,43.788 C98.481,43.788 97.973,43.562 97.646,43.111 C97.317,42.66 97.154,41.959 97.154,41.011 L97.154,37.064 Z M93.81,44.783 L95.291,44.991 L96.147,44.331 C97.158,44.771 98.272,44.991 99.492,44.991 C100.664,44.991 101.651,44.765 102.454,44.314 C103.256,43.863 103.86,43.188 104.265,42.289 C104.67,41.391 104.872,40.273 104.872,38.939 C104.872,37.01 104.529,35.562 103.842,34.593 C103.155,33.626 102.126,33.141 100.753,33.141 C100.305,33.141 99.885,33.209 99.492,33.344 C99.098,33.479 98.727,33.662 98.381,33.894 C98.033,34.125 97.628,34.453 97.165,34.877 L97.154,34.866 L97.154,28.235 L95.73,28.235 L92.502,28.397 L92.502,29.161 C92.826,29.23 93.059,29.303 93.202,29.38 C93.345,29.457 93.458,29.558 93.543,29.682 C93.628,29.805 93.69,29.974 93.728,30.19 C93.767,30.407 93.79,30.661 93.798,30.954 C93.806,31.248 93.81,31.672 93.81,32.227 L93.81,44.783 Z M86.976,41.265 C86.976,41.62 86.883,41.955 86.698,42.272 C86.513,42.588 86.262,42.84 85.946,43.029 C85.63,43.219 85.294,43.313 84.939,43.313 C84.476,43.313 84.114,43.188 83.852,42.937 C83.589,42.687 83.458,42.322 83.458,41.843 C83.458,41.041 83.745,40.432 84.32,40.015 C84.895,39.599 85.78,39.375 86.976,39.344 L86.976,41.265 Z M87.254,44.806 L91.558,44.806 L91.558,44.042 C91.25,43.965 91.039,43.901 90.928,43.852 C90.816,43.801 90.721,43.735 90.644,43.654 C90.567,43.574 90.503,43.465 90.453,43.33 C90.403,43.196 90.366,42.989 90.343,42.712 C90.32,42.434 90.309,42.04 90.309,41.531 L90.309,37.018 C90.309,36.038 90.17,35.27 89.892,34.715 C89.614,34.16 89.196,33.759 88.636,33.512 C88.077,33.265 87.33,33.141 86.397,33.141 C86.035,33.141 85.672,33.165 85.31,33.211 C84.947,33.258 84.536,33.336 84.077,33.448 C83.618,33.56 83.153,33.701 82.683,33.871 C82.212,34.04 81.622,34.283 80.912,34.6 L80.912,36.706 L83.1,36.706 C83.199,36.096 83.354,35.62 83.562,35.277 C83.771,34.934 84.004,34.7 84.262,34.576 C84.521,34.453 84.827,34.391 85.182,34.391 C85.537,34.391 85.842,34.47 86.096,34.628 C86.351,34.786 86.559,35.06 86.721,35.45 C86.883,35.84 86.965,36.393 86.965,37.111 L86.965,38.21 C84.696,38.38 83.005,38.79 81.89,39.442 C80.775,40.094 80.218,40.987 80.218,42.121 C80.218,42.685 80.343,43.182 80.594,43.614 C80.845,44.046 81.215,44.383 81.705,44.627 C82.195,44.87 82.771,44.991 83.435,44.991 C84.106,44.991 84.741,44.852 85.338,44.575 C85.936,44.297 86.552,43.849 87.184,43.232 L87.358,43.29 L87.254,44.806 Z M70.26,37.284 L71.869,37.284 C72.447,37.284 72.929,37.34 73.315,37.452 C73.701,37.564 74.032,37.741 74.31,37.984 C74.588,38.227 74.796,38.547 74.935,38.945 C75.074,39.342 75.143,39.819 75.143,40.374 C75.143,41.161 75.012,41.78 74.75,42.231 C74.488,42.683 74.119,42.999 73.645,43.18 C73.17,43.362 72.567,43.452 71.834,43.452 C71.239,43.452 70.715,43.44 70.26,43.418 L70.26,37.284 Z M70.26,35.931 L70.26,30.422 C70.769,30.384 71.294,30.364 71.834,30.364 C72.513,30.364 73.079,30.445 73.535,30.607 C73.99,30.769 74.341,31.037 74.588,31.411 C74.835,31.786 74.958,32.293 74.958,32.933 C74.958,33.659 74.844,34.227 74.617,34.64 C74.389,35.053 74.056,35.371 73.616,35.595 C73.176,35.818 72.57,35.931 71.799,35.931 L70.26,35.931 Z M75.398,36.428 C77.496,35.556 78.545,34.249 78.545,32.505 C78.545,31.857 78.41,31.298 78.141,30.827 C77.87,30.357 77.496,29.994 77.018,29.739 C76.486,29.454 75.857,29.253 75.132,29.137 C74.584,29.053 73.878,29.01 73.014,29.01 L65.434,29.01 L65.434,29.774 C65.727,29.851 65.957,29.938 66.123,30.034 C66.289,30.131 66.412,30.256 66.493,30.41 C66.574,30.565 66.624,30.765 66.643,31.012 C66.663,31.259 66.673,31.563 66.673,31.927 L66.673,41.902 C66.673,42.272 66.661,42.578 66.638,42.821 C66.615,43.064 66.562,43.265 66.481,43.423 C66.401,43.581 66.277,43.704 66.111,43.793 C65.945,43.882 65.72,43.965 65.434,44.042 L65.434,44.806 L72.562,44.806 C73.666,44.806 74.574,44.721 75.288,44.551 C76.001,44.382 76.623,44.114 77.151,43.747 C77.679,43.381 78.073,42.912 78.331,42.341 C78.59,41.77 78.719,41.099 78.719,40.327 C78.719,39.425 78.435,38.652 77.869,38.007 C77.301,37.364 76.478,36.872 75.398,36.531 L75.398,36.428 Z" id="Fill-18" fill="#005357"/>
        <path d="M222.5689,12.4587 C222.6379,11.3247 222.8489,10.4567 223.1999,9.8547 C223.5509,9.2527 224.0229,8.9527 224.6169,8.9527 C225.2339,8.9527 225.6819,9.2417 225.9589,9.8207 C226.2369,10.3987 226.3919,11.2787 226.4229,12.4587 L222.5689,12.4587 Z M228.6089,16.2887 C228.0619,16.8447 227.5529,17.2327 227.0819,17.4517 C226.6109,17.6717 226.0829,17.7817 225.4969,17.7817 C224.4939,17.7817 223.7469,17.4517 223.2579,16.7927 C222.7669,16.1327 222.5189,15.1047 222.5109,13.7087 L229.8479,13.7087 C229.8399,12.7977 229.7589,12.0227 229.6049,11.3827 C229.4579,10.7577 229.2389,10.2017 228.9449,9.7167 C228.6979,9.3077 228.3859,8.9587 228.0079,8.6687 C227.6299,8.3797 227.1769,8.1537 226.6479,7.9917 C226.1199,7.8297 225.5039,7.7487 224.8029,7.7487 C223.6679,7.7487 222.6729,7.9827 221.8169,8.4497 C220.9609,8.9157 220.2989,9.6027 219.8319,10.5087 C219.3649,11.4157 219.1319,12.4937 219.1319,13.7427 C219.1319,15.6797 219.5859,17.1397 220.4909,18.1237 C221.3979,19.1067 222.7499,19.5987 224.5479,19.5987 C225.5509,19.5987 226.4379,19.4247 227.2099,19.0777 C227.9809,18.7307 228.7599,18.1407 229.5469,17.3077 L228.6089,16.2887 Z M211.5579,19.4137 L217.3209,19.4137 L217.3209,18.6497 C216.9199,18.5577 216.6399,18.4417 216.4819,18.3027 C216.3239,18.1637 216.2129,17.9747 216.1519,17.7357 C216.0899,17.4967 216.0599,17.0877 216.0599,16.5087 L216.0599,9.3807 L218.2929,9.3807 L218.2929,7.9337 L216.0599,7.9337 L216.0599,7.0547 C216.0599,6.3217 216.0919,5.7527 216.1579,5.3477 C216.2229,4.9427 216.3449,4.6297 216.5229,4.4107 C216.6999,4.1907 216.9539,4.0807 217.2859,4.0807 C217.5399,4.0807 217.7469,4.1807 217.9049,4.3817 C218.0629,4.5827 218.2079,4.8947 218.3389,5.3187 L219.9129,5.3187 L219.9129,2.9577 C219.3959,2.8497 218.8059,2.7957 218.1429,2.7957 C216.4839,2.7957 215.2009,3.1527 214.2949,3.8667 C213.3879,4.5797 212.8729,5.6317 212.7499,7.0197 C212.7269,7.2977 212.6879,7.5247 212.6339,7.7027 C212.5799,7.8797 212.5069,8.0247 212.4139,8.1367 C212.3209,8.2487 212.2039,8.3367 212.0609,8.4027 C211.9179,8.4687 211.6659,8.5287 211.3029,8.5817 L211.3029,9.3807 L212.7149,9.3807 L212.7149,16.5087 C212.7149,17.0957 212.6839,17.5067 212.6229,17.7417 C212.5599,17.9767 212.4589,18.1597 212.3159,18.2907 C212.1729,18.4217 211.9199,18.5417 211.5579,18.6497 L211.5579,19.4137 Z M208.8439,2.8427 L207.3969,2.8427 L204.1919,3.0047 L204.1919,3.7677 C204.5159,3.8297 204.7509,3.8997 204.8979,3.9767 C205.0449,4.0537 205.1579,4.1557 205.2389,4.2827 C205.3199,4.4107 205.3779,4.5797 205.4129,4.7917 C205.4479,5.0047 205.4709,5.2667 205.4819,5.5787 C205.4939,5.8917 205.4999,6.3797 205.4999,7.0427 L205.4999,16.0697 C205.4999,16.5627 205.4919,16.9427 205.4759,17.2087 C205.4609,17.4747 205.4259,17.6837 205.3729,17.8337 C205.3179,17.9847 205.2539,18.1077 205.1809,18.2037 C205.1079,18.3007 205.0059,18.3857 204.8749,18.4587 C204.7439,18.5327 204.5619,18.5967 204.3309,18.6497 L204.3309,19.4137 L210.0009,19.4137 L210.0009,18.6497 C209.6079,18.5497 209.3399,18.4167 209.1969,18.2507 C209.0549,18.0847 208.9599,17.8627 208.9139,17.5857 C208.8669,17.3077 208.8439,16.8017 208.8439,16.0697 L208.8439,2.8427 Z M197.2889,19.4137 L202.9359,19.4137 L202.9359,18.6497 C202.7199,18.5967 202.5459,18.5337 202.4159,18.4647 C202.2839,18.3947 202.1839,18.3187 202.1149,18.2327 C202.0449,18.1477 201.9889,18.0557 201.9469,17.9557 C201.9039,17.8547 201.8719,17.7417 201.8489,17.6137 C201.8249,17.4867 201.8079,17.3057 201.7969,17.0707 C201.7849,16.8347 201.7799,16.5007 201.7799,16.0697 L201.7799,7.8417 L200.3329,7.8417 L197.1499,7.9337 L197.1499,8.7207 C197.4119,8.7747 197.6269,8.8387 197.7929,8.9117 C197.9579,8.9847 198.0889,9.0907 198.1859,9.2297 C198.2829,9.3687 198.3479,9.5547 198.3829,9.7857 C198.4169,10.0177 198.4349,10.3217 198.4349,10.6997 L198.4349,16.0807 C198.4349,16.8137 198.4099,17.3187 198.3589,17.5967 C198.3089,17.8747 198.2129,18.0937 198.0709,18.2557 C197.9279,18.4187 197.6669,18.5497 197.2889,18.6497 L197.2889,19.4137 Z M198.5159,6.1517 L201.6869,6.1517 L201.6869,3.3167 L198.5159,3.3167 L198.5159,6.1517 Z M187.7249,9.4497 L187.7249,2.8427 L186.2779,2.8427 L183.0729,3.0047 L183.0729,3.7677 C183.3969,3.8297 183.6319,3.8997 183.7779,3.9767 C183.9249,4.0537 184.0369,4.1557 184.1139,4.2827 C184.1909,4.4107 184.2489,4.5797 184.2879,4.7917 C184.3269,5.0047 184.3509,5.2667 184.3629,5.5787 C184.3739,5.8917 184.3799,6.3797 184.3799,7.0427 L184.3799,16.0697 C184.3799,16.5627 184.3719,16.9427 184.3569,17.2087 C184.3409,17.4747 184.3069,17.6837 184.2529,17.8337 C184.1989,17.9847 184.1349,18.1077 184.0619,18.2037 C183.9889,18.3007 183.8869,18.3857 183.7549,18.4587 C183.6239,18.5327 183.4429,18.5967 183.2119,18.6497 L183.2119,19.4137 L188.8819,19.4137 L188.8819,18.6497 C188.6659,18.5967 188.4919,18.5337 188.3609,18.4647 C188.2299,18.3947 188.1299,18.3187 188.0599,18.2327 C187.9909,18.1477 187.9349,18.0557 187.8919,17.9557 C187.8499,17.8547 187.8169,17.7417 187.7949,17.6137 C187.7709,17.4867 187.7529,17.3057 187.7419,17.0707 C187.7309,16.8347 187.7249,16.5007 187.7249,16.0697 L187.7249,11.5797 C187.7249,11.2247 187.8309,10.8907 188.0429,10.5787 C188.2549,10.2657 188.5209,10.0187 188.8409,9.8377 C189.1619,9.6567 189.4679,9.5657 189.7619,9.5657 C190.0699,9.5657 190.3189,9.6237 190.5079,9.7387 C190.6969,9.8547 190.8509,10.0307 190.9709,10.2657 C191.0899,10.5007 191.1749,10.8327 191.2259,11.2607 C191.2749,11.6887 191.2999,12.2887 191.2999,13.0607 L191.2999,16.0807 C191.2999,16.8137 191.2749,17.3227 191.2259,17.6087 C191.1749,17.8937 191.0829,18.1177 190.9479,18.2797 C190.8119,18.4417 190.5639,18.5647 190.2009,18.6497 L190.2009,19.4137 L195.8129,19.4137 L195.8129,18.6497 C195.6049,18.5967 195.4279,18.5307 195.2809,18.4527 C195.1339,18.3757 195.0209,18.2817 194.9389,18.1697 C194.8589,18.0577 194.7949,17.9127 194.7489,17.7357 C194.7029,17.5577 194.6739,17.3217 194.6619,17.0237 C194.6509,16.7267 194.6449,16.4087 194.6449,16.0697 L194.6449,11.8447 C194.6449,10.9117 194.5389,10.1517 194.3259,9.5657 C194.1139,8.9797 193.7769,8.5297 193.3139,8.2177 C192.8509,7.9047 192.1959,7.7487 191.3469,7.7487 C190.7679,7.7487 190.2029,7.8787 189.6509,8.1367 C189.0999,8.3947 188.4729,8.8367 187.7709,9.4617 L187.7249,9.4497 Z M172.6979,16.2887 L172.6979,19.0547 C174.2559,19.4177 175.6719,19.5987 176.9449,19.5987 C177.6469,19.5987 178.2889,19.5277 178.8719,19.3847 C179.4539,19.2417 179.9539,19.0237 180.3699,18.7307 C180.7869,18.4377 181.1109,18.0657 181.3419,17.6137 C181.5739,17.1627 181.6889,16.6247 181.6889,15.9997 C181.6889,15.4287 181.5699,14.9297 181.3309,14.5007 C181.0919,14.0727 180.7449,13.6957 180.2889,13.3667 C179.8339,13.0397 179.2439,12.7247 178.5189,12.4237 C177.7239,12.0927 177.1879,11.8277 176.9099,11.6317 C176.6319,11.4347 176.4399,11.2317 176.3309,11.0237 C176.2229,10.8157 176.1689,10.5647 176.1689,10.2717 C176.1689,9.8547 176.3199,9.5307 176.6209,9.2997 C176.9219,9.0677 177.3269,8.9527 177.8359,8.9527 C178.1909,8.9527 178.4959,9.0047 178.7509,9.1087 C179.0049,9.2127 179.2379,9.3997 179.4499,9.6697 C179.6619,9.9397 179.8569,10.3217 180.0349,10.8157 L181.5619,10.8157 L181.5619,8.1187 C180.7059,7.9647 180.0079,7.8647 179.4669,7.8187 C178.9279,7.7717 178.3759,7.7487 177.8129,7.7487 C176.8569,7.7487 176.0059,7.8837 175.2609,8.1537 C174.5159,8.4247 173.9439,8.8137 173.5429,9.3227 C173.1409,9.8317 172.9409,10.4337 172.9409,11.1277 C172.9409,11.5527 173.0219,11.9377 173.1839,12.2847 C173.3459,12.6327 173.5659,12.9467 173.8429,13.2287 C174.1209,13.5097 174.4469,13.7627 174.8219,13.9867 C175.1959,14.2097 175.5949,14.4147 176.0189,14.5997 C176.7749,14.9307 177.3099,15.1997 177.6219,15.4037 C177.9339,15.6087 178.1579,15.8227 178.2939,16.0467 C178.4279,16.2697 178.4959,16.5397 178.4959,16.8557 C178.4959,17.3577 178.3469,17.7397 178.0499,18.0017 C177.7529,18.2647 177.3149,18.3947 176.7369,18.3947 C176.0649,18.3947 175.5289,18.2197 175.1279,17.8687 C174.7269,17.5177 174.4339,16.9907 174.2489,16.2887 L172.6979,16.2887 Z M164.9499,20.2007 L166.9409,20.2007 C167.4349,20.2007 167.8159,20.2627 168.0869,20.3857 C168.3559,20.5087 168.5379,20.6637 168.6299,20.8487 C168.7229,21.0337 168.7689,21.2567 168.7689,21.5197 C168.7689,22.1057 168.5159,22.5607 168.0109,22.8857 C167.5059,23.2097 166.7669,23.3717 165.7949,23.3717 C164.7529,23.3717 163.9919,23.2377 163.5099,22.9717 C163.0269,22.7057 162.7859,22.2947 162.7859,21.7397 C162.7859,21.4077 162.8579,21.1147 162.9999,20.8597 C163.1429,20.6057 163.3539,20.3697 163.6309,20.1537 C163.9479,20.1847 164.3869,20.2007 164.9499,20.2007 L164.9499,20.2007 Z M164.4579,9.6057 C164.7329,9.1627 165.1539,8.9407 165.7259,8.9407 C166.2889,8.9407 166.7069,9.1897 166.9809,9.6867 C167.2549,10.1847 167.3919,10.9077 167.3919,11.8567 C167.3919,12.7597 167.2509,13.4307 166.9699,13.8707 C166.6879,14.3107 166.2809,14.5297 165.7489,14.5297 C165.1629,14.5297 164.7329,14.2927 164.4579,13.8187 C164.1849,13.3437 164.0479,12.6207 164.0479,11.6487 C164.0479,10.7307 164.1849,10.0497 164.4579,9.6057 L164.4579,9.6057 Z M171.8589,7.9337 L167.6809,7.9337 C167.3959,7.8877 167.1029,7.8457 166.8019,7.8067 C166.5009,7.7677 166.1539,7.7487 165.7609,7.7487 C165.0509,7.7487 164.3889,7.8237 163.7759,7.9747 C163.1629,8.1247 162.6299,8.3627 162.1789,8.6867 C161.7279,9.0097 161.3719,9.4287 161.1139,9.9417 C160.8559,10.4547 160.7259,11.0697 160.7259,11.7877 C160.7259,12.5277 160.8809,13.1747 161.1889,13.7257 C161.4979,14.2777 161.9529,14.7227 162.5549,15.0627 C162.1539,15.3707 161.8279,15.6547 161.5769,15.9127 C161.3259,16.1717 161.1259,16.4587 160.9749,16.7757 C160.8249,17.0917 160.7499,17.4307 160.7499,17.7937 C160.7499,18.2327 160.8229,18.6037 160.9689,18.9047 C161.1159,19.2057 161.3519,19.4717 161.6759,19.7027 C161.1739,19.9647 160.7839,20.2817 160.5069,20.6517 C160.2289,21.0217 160.0899,21.4267 160.0899,21.8667 C160.0899,22.4147 160.2269,22.8657 160.5009,23.2207 C160.7749,23.5757 161.1629,23.8557 161.6639,24.0597 C162.1649,24.2637 162.7709,24.4047 163.4809,24.4817 C164.1899,24.5587 164.9809,24.5977 165.8529,24.5977 C167.0479,24.5977 168.0819,24.4417 168.9539,24.1287 C169.8259,23.8167 170.4949,23.3637 170.9619,22.7697 C171.4289,22.1747 171.6619,21.4657 171.6619,20.6407 C171.6619,19.5837 171.3419,18.8047 170.7009,18.3027 C170.0609,17.8017 169.0969,17.5507 167.8089,17.5507 L164.9389,17.5507 C164.5139,17.5507 164.1869,17.5177 163.9549,17.4517 C163.7239,17.3867 163.5599,17.2917 163.4629,17.1687 C163.3669,17.0447 163.3189,16.8677 163.3189,16.6367 C163.3189,16.2357 163.5109,15.8617 163.8979,15.5137 C164.3829,15.6527 165.0079,15.7217 165.7719,15.7217 C167.3529,15.7217 168.5509,15.3747 169.3649,14.6807 C170.1789,13.9867 170.5859,12.9677 170.5859,11.6257 C170.5859,11.1007 170.5139,10.6517 170.3719,10.2777 C170.2289,9.9037 170.0499,9.6087 169.8329,9.3927 L169.8799,9.2647 L171.8589,9.4847 L171.8589,7.9337 Z M159.1819,18.6497 C158.9729,18.5967 158.7959,18.5307 158.6489,18.4527 C158.5029,18.3757 158.3889,18.2817 158.3079,18.1697 C158.2269,18.0577 158.1629,17.9127 158.1169,17.7357 C158.0699,17.5577 158.0419,17.3217 158.0299,17.0237 C158.0179,16.7267 158.0129,16.4087 158.0129,16.0697 L158.0129,11.8337 C158.0129,11.1707 157.9569,10.5877 157.8449,10.0867 C157.7329,9.5847 157.5479,9.1607 157.2889,8.8137 C157.0309,8.4667 156.6939,8.2027 156.2769,8.0207 C155.8609,7.8397 155.3349,7.7487 154.7029,7.7487 C154.2629,7.7487 153.8449,7.8207 153.4469,7.9627 C153.0499,8.1057 152.6699,8.2987 152.3079,8.5417 C151.9449,8.7847 151.5249,9.1187 151.0459,9.5427 L150.9069,9.5077 L151.0809,7.8417 L149.6229,7.8417 L146.4519,7.9337 L146.4519,8.7207 C146.8229,8.7977 147.0829,8.8887 147.2329,8.9927 C147.3839,9.0967 147.4959,9.2317 147.5689,9.3977 C147.6419,9.5637 147.6879,9.7837 147.7079,10.0577 C147.7269,10.3317 147.7369,10.7537 147.7369,11.3247 L147.7369,16.0807 C147.7369,16.8137 147.7109,17.3187 147.6609,17.5967 C147.6109,17.8747 147.5149,18.0937 147.3729,18.2557 C147.2299,18.4187 146.9729,18.5497 146.6029,18.6497 L146.6029,19.4137 L152.1919,19.4137 L152.1919,18.6497 C151.8289,18.5647 151.5759,18.4397 151.4339,18.2737 C151.2909,18.1077 151.1969,17.8817 151.1499,17.5967 C151.1049,17.3117 151.0809,16.8017 151.0809,16.0697 L151.0809,11.6137 C151.0809,11.2517 151.1889,10.9097 151.4049,10.5897 C151.6209,10.2697 151.8869,10.0187 152.2039,9.8377 C152.5199,9.6567 152.8239,9.5657 153.1179,9.5657 C153.3339,9.5657 153.5109,9.5887 153.6499,9.6357 C153.7889,9.6817 153.9119,9.7527 154.0199,9.8497 C154.1289,9.9457 154.2269,10.0687 154.3149,10.2197 C154.4039,10.3697 154.4739,10.5567 154.5229,10.7807 C154.5739,11.0047 154.6109,11.2917 154.6339,11.6427 C154.6569,11.9937 154.6679,12.4437 154.6679,12.9907 L154.6679,16.0807 C154.6679,16.8137 154.6429,17.3217 154.5929,17.6027 C154.5429,17.8847 154.4479,18.1077 154.3099,18.2737 C154.1709,18.4397 153.9239,18.5647 153.5689,18.6497 L153.5689,19.4137 L159.1819,19.4137 L159.1819,18.6497 Z M139.3759,19.4137 L145.0229,19.4137 L145.0229,18.6497 C144.8069,18.5967 144.6329,18.5337 144.5019,18.4647 C144.3699,18.3947 144.2709,18.3187 144.2009,18.2327 C144.1319,18.1477 144.0759,18.0557 144.0339,17.9557 C143.9909,17.8547 143.9579,17.7417 143.9349,17.6137 C143.9119,17.4867 143.8949,17.3057 143.8829,17.0707 C143.8719,16.8347 143.8659,16.5007 143.8659,16.0697 L143.8659,7.8417 L142.4189,7.8417 L139.2369,7.9337 L139.2369,8.7207 C139.4989,8.7747 139.7129,8.8387 139.8789,8.9117 C140.0449,8.9847 140.1759,9.0907 140.2729,9.2297 C140.3689,9.3687 140.4349,9.5547 140.4689,9.7857 C140.5039,10.0177 140.5209,10.3217 140.5209,10.6997 L140.5209,16.0807 C140.5209,16.8137 140.4959,17.3187 140.4459,17.5967 C140.3959,17.8747 140.2989,18.0937 140.1569,18.2557 C140.0139,18.4187 139.7529,18.5497 139.3759,18.6497 L139.3759,19.4137 Z M140.6029,6.1517 L143.7729,6.1517 L143.7729,3.3167 L140.6029,3.3167 L140.6029,6.1517 Z M136.6499,2.8427 L135.2039,2.8427 L131.9979,3.0047 L131.9979,3.7677 C132.3219,3.8297 132.5569,3.8997 132.7039,3.9767 C132.8499,4.0537 132.9639,4.1557 133.0449,4.2827 C133.1269,4.4107 133.1839,4.5797 133.2189,4.7917 C133.2539,5.0047 133.2769,5.2667 133.2889,5.5787 C133.2999,5.8917 133.3059,6.3797 133.3059,7.0427 L133.3059,16.0697 C133.3059,16.5627 133.2979,16.9427 133.2829,17.2087 C133.2669,17.4747 133.2319,17.6837 133.1779,17.8337 C133.1239,17.9847 133.0609,18.1077 132.9879,18.2037 C132.9139,18.3007 132.8119,18.3857 132.6809,18.4587 C132.5499,18.5327 132.3679,18.5967 132.1369,18.6497 L132.1369,19.4137 L137.8069,19.4137 L137.8069,18.6497 C137.4139,18.5497 137.1459,18.4167 137.0029,18.2507 C136.8599,18.0847 136.7659,17.8627 136.7199,17.5857 C136.6729,17.3077 136.6499,16.8017 136.6499,16.0697 L136.6499,2.8427 Z M131.0899,17.0527 C130.8809,17.2377 130.6829,17.3807 130.4939,17.4807 C130.3049,17.5807 130.1249,17.6507 129.9549,17.6897 C129.7859,17.7277 129.5929,17.7467 129.3769,17.7467 C129.0909,17.7467 128.8519,17.6487 128.6589,17.4517 C128.4669,17.2557 128.3289,16.9487 128.2489,16.5317 C128.1679,16.1157 128.1269,15.4707 128.1269,14.5997 L128.1269,9.3807 L131.4249,9.3807 L131.4249,7.9337 L128.1269,7.9337 L128.1269,5.0407 L125.3609,5.0407 C125.3229,5.6657 125.2669,6.1867 125.1929,6.6037 C125.1199,7.0197 125.0219,7.3577 124.8979,7.6157 C124.7749,7.8747 124.6019,8.0807 124.3779,8.2347 C124.1539,8.3897 123.8069,8.5047 123.3369,8.5817 L123.3369,9.3807 L124.7829,9.3807 L124.7829,15.8487 C124.7829,17.1067 125.0659,18.0467 125.6329,18.6667 C126.1999,19.2887 127.0589,19.5987 128.2079,19.5987 C128.8249,19.5987 129.4119,19.4807 129.9669,19.2457 C130.5229,19.0107 131.1399,18.6037 131.8189,18.0247 L131.0899,17.0527 Z M114.3269,9.4497 L114.3269,2.8427 L112.8809,2.8427 L109.6749,3.0047 L109.6749,3.7677 C109.9989,3.8297 110.2339,3.8997 110.3819,3.9767 C110.5279,4.0537 110.6389,4.1557 110.7169,4.2827 C110.7939,4.4107 110.8509,4.5797 110.8899,4.7917 C110.9289,5.0047 110.9539,5.2667 110.9649,5.5787 C110.9769,5.8917 110.9829,6.3797 110.9829,7.0427 L110.9829,16.0697 C110.9829,16.5627 110.9749,16.9427 110.9599,17.2087 C110.9439,17.4747 110.9089,17.6837 110.8559,17.8337 C110.8009,17.9847 110.7379,18.1077 110.6649,18.2037 C110.5909,18.3007 110.4889,18.3857 110.3579,18.4587 C110.2269,18.5327 110.0459,18.5967 109.8139,18.6497 L109.8139,19.4137 L115.4839,19.4137 L115.4839,18.6497 C115.2689,18.5967 115.0949,18.5337 114.9639,18.4647 C114.8319,18.3947 114.7319,18.3187 114.6629,18.2327 C114.5929,18.1477 114.5369,18.0557 114.4949,17.9557 C114.4519,17.8547 114.4199,17.7417 114.3969,17.6137 C114.3729,17.4867 114.3559,17.3057 114.3449,17.0707 C114.3329,16.8347 114.3269,16.5007 114.3269,16.0697 L114.3269,11.5797 C114.3269,11.2247 114.4329,10.8907 114.6449,10.5787 C114.8579,10.2657 115.1239,10.0187 115.4439,9.8377 C115.7639,9.6567 116.0709,9.5657 116.3639,9.5657 C116.6719,9.5657 116.9209,9.6237 117.1099,9.7387 C117.2989,9.8547 117.4529,10.0307 117.5729,10.2657 C117.6919,10.5007 117.7779,10.8327 117.8279,11.2607 C117.8779,11.6887 117.9029,12.2887 117.9029,13.0607 L117.9029,16.0807 C117.9029,16.8137 117.8779,17.3227 117.8279,17.6087 C117.7779,17.8937 117.6849,18.1177 117.5499,18.2797 C117.4149,18.4417 117.1659,18.5647 116.8039,18.6497 L116.8039,19.4137 L122.4159,19.4137 L122.4159,18.6497 C122.2079,18.5967 122.0299,18.5307 121.8839,18.4527 C121.7369,18.3757 121.6239,18.2817 121.5429,18.1697 C121.4609,18.0577 121.3979,17.9127 121.3509,17.7357 C121.3049,17.5577 121.2759,17.3217 121.2649,17.0237 C121.2529,16.7267 121.2479,16.4087 121.2479,16.0697 L121.2479,11.8447 C121.2479,10.9117 121.1419,10.1517 120.9289,9.5657 C120.7169,8.9797 120.3799,8.5297 119.9169,8.2177 C119.4539,7.9047 118.7979,7.7487 117.9489,7.7487 C117.3709,7.7487 116.8059,7.8787 116.2539,8.1367 C115.7019,8.3947 115.0749,8.8367 114.3729,9.4617 L114.3269,9.4497 Z M106.5389,17.4927 C106.1419,17.6857 105.7189,17.7817 105.2719,17.7817 C104.6549,17.7817 104.1569,17.6137 103.7789,17.2787 C103.4009,16.9427 103.1269,16.4647 102.9579,15.8437 C102.7869,15.2227 102.7029,14.4607 102.7029,13.5577 C102.7029,12.6557 102.7609,11.9087 102.8759,11.3187 C102.9919,10.7287 103.1479,10.2577 103.3449,9.9067 C103.5419,9.5557 103.7689,9.3097 104.0279,9.1667 C104.2859,9.0237 104.5579,8.9527 104.8439,8.9527 C105.2759,8.9527 105.6069,9.1187 105.8389,9.4497 C106.0699,9.7817 106.2439,10.3107 106.3589,11.0357 L108.6509,11.0357 L108.6509,8.2467 C108.1419,8.0917 107.5769,7.9707 106.9559,7.8817 C106.3339,7.7937 105.7119,7.7487 105.0869,7.7487 C103.9219,7.7487 102.8879,7.9867 101.9859,8.4607 C101.0829,8.9347 100.3899,9.6337 99.9079,10.5547 C99.4259,11.4767 99.1849,12.5707 99.1849,13.8357 C99.1849,15.7107 99.6249,17.1397 100.5039,18.1237 C101.3839,19.1067 102.6599,19.5987 104.3349,19.5987 C105.1679,19.5987 105.9369,19.4387 106.6429,19.1187 C107.3489,18.7987 108.0799,18.2677 108.8359,17.5277 L107.9449,16.4507 C107.4049,16.9527 106.9359,17.2997 106.5389,17.4927 L106.5389,17.4927 Z M92.2009,6.0017 L94.6189,6.0017 L94.6189,3.4557 L92.2009,3.4557 L92.2009,6.0017 Z M87.9659,6.0017 L90.3849,6.0017 L90.3849,3.4557 L87.9659,3.4557 L87.9659,6.0017 Z M84.9569,8.6977 C85.1729,8.7517 85.3449,8.8137 85.4719,8.8827 C85.5989,8.9527 85.6989,9.0297 85.7729,9.1147 C85.8459,9.1997 85.9039,9.2937 85.9459,9.3977 C85.9889,9.5017 86.0219,9.6177 86.0449,9.7447 C86.0679,9.8727 86.0849,10.0517 86.0969,10.2837 C86.1079,10.5147 86.1139,10.8467 86.1139,11.2787 L86.1139,15.5137 C86.1139,16.4477 86.2219,17.2087 86.4379,17.7987 C86.6539,18.3897 87.0069,18.8367 87.4969,19.1417 C87.9869,19.4467 88.6409,19.5987 89.4579,19.5987 C90.0289,19.5987 90.5959,19.4677 91.1589,19.2057 C91.7229,18.9437 92.3629,18.4807 93.0809,17.8157 L93.2189,17.8517 L93.1149,19.5177 L94.5149,19.5177 L97.6629,19.4137 L97.6629,18.6377 C97.2999,18.5607 97.0419,18.4707 96.8869,18.3657 C96.7329,18.2627 96.6209,18.1297 96.5519,17.9667 C96.4829,17.8047 96.4379,17.5897 96.4189,17.3187 C96.3999,17.0487 96.3899,16.6207 96.3899,16.0347 L96.3899,7.9337 L91.8769,7.9337 L91.8769,8.6977 C92.1929,8.7907 92.4209,8.8887 92.5599,8.9927 C92.6989,9.0967 92.8009,9.2267 92.8669,9.3807 C92.9319,9.5357 92.9759,9.7487 92.9999,10.0227 C93.0219,10.2967 93.0339,10.7157 93.0339,11.2787 L93.0339,15.7457 C93.0339,16.1077 92.9239,16.4497 92.7049,16.7687 C92.4839,17.0897 92.2159,17.3387 91.8999,17.5157 C91.5839,17.6927 91.2829,17.7817 90.9979,17.7817 C90.7039,17.7817 90.4629,17.7257 90.2739,17.6137 C90.0849,17.5017 89.9249,17.3247 89.7939,17.0817 C89.6629,16.8387 89.5739,16.5087 89.5279,16.0927 C89.4819,15.6757 89.4579,15.0967 89.4579,14.3567 L89.4579,7.9337 L84.9569,7.9337 L84.9569,8.6977 Z M82.4749,2.8427 L81.0279,2.8427 L77.8219,3.0047 L77.8219,3.7677 C78.1469,3.8297 78.3819,3.8997 78.5279,3.9767 C78.6749,4.0537 78.7889,4.1557 78.8699,4.2827 C78.9509,4.4107 79.0089,4.5797 79.0439,4.7917 C79.0779,5.0047 79.1009,5.2667 79.1129,5.5787 C79.1249,5.8917 79.1299,6.3797 79.1299,7.0427 L79.1299,16.0697 C79.1299,16.5627 79.1219,16.9427 79.1069,17.2087 C79.0909,17.4747 79.0569,17.6837 79.0029,17.8337 C78.9489,17.9847 78.8849,18.1077 78.8119,18.2037 C78.7379,18.3007 78.6369,18.3857 78.5059,18.4587 C78.3739,18.5327 78.1929,18.5967 77.9609,18.6497 L77.9609,19.4137 L83.6319,19.4137 L83.6319,18.6497 C83.2379,18.5497 82.9699,18.4167 82.8279,18.2507 C82.6849,18.0847 82.5909,17.8627 82.5439,17.5857 C82.4969,17.3077 82.4749,16.8017 82.4749,16.0697 L82.4749,2.8427 Z M70.2599,12.2157 L71.7409,12.2157 C72.0959,12.2157 72.3699,12.2697 72.5629,12.3777 C72.7559,12.4857 72.9179,12.6727 73.0489,12.9387 C73.1799,13.2057 73.2919,13.5807 73.3849,14.0667 L74.6919,14.0667 L74.6919,9.0217 L73.3849,9.0217 C73.2999,9.5007 73.1939,9.8707 73.0659,10.1327 C72.9389,10.3957 72.7769,10.5827 72.5799,10.6937 C72.3829,10.8057 72.1039,10.8617 71.7409,10.8617 L70.2599,10.8617 L70.2599,4.9717 L72.4929,4.9717 C73.0869,4.9717 73.5079,5.0467 73.7539,5.1977 C74.0009,5.3477 74.2129,5.5527 74.3909,5.8107 C74.5689,6.0697 74.7839,6.5647 75.0389,7.2977 L76.6249,7.2977 L76.6249,3.6177 L65.4339,3.6177 L65.4339,4.3817 C65.7269,4.4587 65.9569,4.5457 66.1229,4.6417 C66.2889,4.7387 66.4119,4.8637 66.4929,5.0177 C66.5739,5.1727 66.6239,5.3727 66.6439,5.6197 C66.6629,5.8667 66.6729,6.1717 66.6729,6.5337 L66.6729,16.4977 C66.6729,16.8677 66.6609,17.1767 66.6379,17.4237 C66.6149,17.6697 66.5629,17.8727 66.4819,18.0307 C66.4009,18.1887 66.2769,18.3147 66.1109,18.4067 C65.9449,18.4997 65.7199,18.5807 65.4339,18.6497 L65.4339,19.4137 L71.6599,19.4137 L71.6599,18.6497 C71.3899,18.6107 71.1759,18.5587 71.0179,18.4937 C70.8599,18.4277 70.7359,18.3547 70.6479,18.2737 C70.5589,18.1927 70.4839,18.0867 70.4219,17.9557 C70.3599,17.8247 70.3179,17.6527 70.2949,17.4407 C70.2709,17.2287 70.2599,16.9177 70.2599,16.5087 L70.2599,12.2157 Z" id="Fill-20" fill="#005357"/>
      </g>
    </g>
  </g>
</svg>