<?xml version="1.0" encoding="utf-8"?>
<svg viewBox="-0.44 -0.548 55.421 46.397" version="1.1" xmlns="http://www.w3.org/2000/svg">
  <title>Group</title>
  <desc>Created with Sketch.</desc>
  <g id="Page-1" stroke="none" stroke-width="1" fill="none" fill-rule="evenodd">
    <g id="Group">
      <g id="Group-11" transform="translate(11.000000, 24.000000)">
        <path d="M21.3246,15.528 C21.4596,15.815 17.4566,19.701 17.4566,19.701 L18.3986,20.722 C19.5326,21.843 21.3706,21.843 22.5036,20.722 C23.6376,19.6 23.6376,17.781 22.5036,16.658 L21.3246,15.528 Z" id="Fill-3" fill="#005357"/>
        <path d="M15.834,11.9931 C16.967,10.8711 18.806,10.8711 19.94,11.9931 C21.073,13.1151 21.073,14.9341 19.94,16.0561 L15.219,20.7271 C14.085,21.8491 12.247,21.8491 11.113,20.7271 C9.98,19.6051 9.98,17.7861 11.113,16.6641 L15.834,11.9931 Z" id="Fill-5" fill="#008087"/>
        <path d="M9.778,16.6881 C8.644,17.8101 6.806,17.8101 5.673,16.6881 C4.539,15.5661 4.539,13.7471 5.673,12.6251 L11.874,6.4731 C13.007,5.3511 14.846,5.3511 15.979,6.4731 C17.113,7.5951 17.113,9.4141 15.979,10.5361 L9.778,16.6881 Z" id="Fill-7" fill="#008087"/>
        <path d="M5.0093,11.9684 C3.8753,13.0904 2.0373,13.0904 0.9033,11.9684 C-0.2307,10.8464 -0.2307,9.0274 0.9033,7.9054 L7.1043,1.7534 C8.2383,0.6314 10.0763,0.6314 11.2103,1.7534 C12.3443,2.8754 12.3433,4.6944 11.2103,5.8164 L5.0093,11.9684 Z" id="Fill-9" fill="#008087"/>
      </g>
      <g>
        <g id="Group-22">
          <path d="M11.7984,30.5686 C10.6764,31.6906 8.8574,31.6906 7.7354,30.5686 C6.6124,29.4466 6.6134,27.6276 7.7354,26.5056 L12.0644,22.0686 C13.1874,20.9466 15.0454,21.1386 16.1674,22.2606 C17.2904,23.3826 17.2894,25.2006 16.1674,26.3236 L11.7984,30.5686 Z" id="Fill-12" fill="#008087"/>
          <path d="M49.3271,25.5803 C54.9811,19.9263 54.9811,10.7603 49.3261,5.1063 C43.6731,-0.5477 34.5061,-0.5477 28.8511,5.1063 L22.3681,11.5893 C21.2461,12.7123 21.2461,14.5313 22.3681,15.6523 C23.4901,16.7743 25.3091,16.7743 26.4311,15.6523 L32.0151,10.0683 L48.4271,26.4803 L49.3271,25.5803 Z" id="Fill-14" fill="#008087"/>
          <path d="M47.5358,26.9552 L31.9898,11.4072 L27.0878,16.3092 C25.6048,17.7912 23.1938,17.7912 21.7118,16.3092 C20.2288,14.8272 20.2288,12.4152 21.7118,10.9332 L26.6138,6.0312 L25.6878,5.1062 C20.0338,-0.5478 10.8678,-0.5478 5.2138,5.1052 C-0.4402,10.7602 -0.4402,19.9262 5.2138,25.5802 L6.2808,26.6472 L11.4428,21.3032 C12.8778,19.9632 15.2238,19.9162 16.7058,21.3992 C17.7218,22.4152 18.0458,23.2652 17.9978,24.6042 C20.0078,23.4082 21.9278,24.3782 22.6458,25.0972 C23.6628,26.1132 23.9818,27.5672 23.6038,28.8582 C24.8778,28.4862 26.2148,28.6102 27.2268,29.5902 C27.2258,29.5912 27.2228,29.5912 27.2208,29.5932 C29.6258,31.7822 27.9778,34.2822 27.9778,34.2822 C27.9778,34.2822 29.9128,33.8872 31.1758,35.1412 C32.9278,36.6872 32.3768,38.6972 32.3768,38.6972 L34.9248,41.2282 C36.0468,42.3502 37.8658,42.3502 38.9878,41.2282 C40.1098,40.1062 40.1098,38.2872 38.9878,37.1662 L31.9578,30.1362 L32.5918,29.4572 L39.6438,36.5092 C40.7668,37.6302 42.5858,37.6302 43.7078,36.5092 C44.8298,35.3862 44.8298,33.5682 43.7078,32.4462 L36.5168,25.2552 L37.0938,24.6382 L43.4728,31.0182 C44.5948,32.1392 46.4138,32.1392 47.5358,31.0182 C48.6578,29.8962 48.6578,28.0772 47.5358,26.9552" id="Fill-16" fill="#005357"/>
        </g>
      </g>
    </g>
  </g>
</svg>