<?xml version="1.0" standalone="no"?>
<!DOCTYPE svg PUBLIC "-//W3C//DTD SVG 20010904//EN"
 "http://www.w3.org/TR/2001/REC-SVG-20010904/DTD/svg10.dtd">
<svg version="1.0" xmlns="http://www.w3.org/2000/svg"
 width="880.000000pt" height="880.000000pt" viewBox="0 0 880.000000 880.000000"
 preserveAspectRatio="xMidYMid meet">
<metadata>
Created by potrace 1.11, written by Peter Selinger 2001-2013
</metadata>
<g transform="translate(0.000000,880.000000) scale(0.100000,-0.100000)"
fill="#000000" stroke="none">
<path d="M2407 7854 c-1 -1 -38 -5 -82 -8 -44 -3 -89 -8 -100 -10 -11 -2 -42
-7 -68 -10 -27 -4 -59 -10 -70 -12 -12 -3 -33 -7 -47 -10 -35 -7 -212 -54
-230 -61 -8 -3 -24 -8 -34 -10 -11 -2 -24 -7 -30 -12 -6 -5 -29 -14 -51 -21
-22 -7 -46 -17 -52 -23 -7 -5 -13 -7 -13 -4 0 5 -103 -42 -164 -75 -79 -42
-204 -116 -221 -131 -5 -4 -41 -30 -80 -57 -38 -28 -90 -67 -115 -88 -62 -52
-247 -238 -295 -296 -44 -53 -175 -233 -175 -240 0 -2 -19 -35 -42 -72 -102
-168 -208 -433 -250 -624 -13 -64 -16 -75 -18 -75 -1 0 -3 -9 -4 -20 -2 -11
-6 -39 -10 -62 -18 -100 -29 -246 -29 -373 0 -132 15 -337 27 -378 3 -9 8 -35
11 -57 4 -22 16 -76 27 -120 11 -44 21 -84 22 -90 4 -22 39 -122 52 -152 8
-17 14 -35 14 -39 0 -24 178 -379 197 -393 5 -3 14 -18 22 -33 8 -15 22 -37
33 -47 10 -11 18 -23 18 -26 0 -31 387 -455 415 -455 11 0 65 54 491 496 116
121 242 251 280 290 105 108 217 175 336 201 57 12 273 6 273 -7 0 -1 11 -4
25 -6 51 -9 170 -77 228 -130 65 -58 142 -154 173 -216 28 -55 49 -143 54
-227 5 -81 8 -89 27 -74 18 14 109 51 141 57 15 4 39 9 55 12 125 26 306 -12
419 -88 23 -15 45 -28 48 -28 11 0 95 -91 124 -135 51 -76 87 -172 95 -258 2
-21 7 -41 10 -44 3 -3 1 -12 -5 -19 -6 -8 -7 -14 0 -18 6 -4 8 -12 6 -19 -2
-7 -6 -30 -9 -52 -3 -22 -8 -53 -11 -69 -5 -26 -4 -28 17 -22 63 19 249 27
298 14 8 -3 33 -10 55 -16 70 -20 157 -80 238 -164 42 -44 77 -85 77 -90 0 -4
11 -26 25 -48 14 -22 22 -40 19 -40 -4 0 -2 -6 4 -12 45 -56 51 -287 10 -387
-6 -14 -12 -32 -14 -39 -1 -7 -11 -28 -22 -46 l-20 -34 101 2 c181 3 299 -42
423 -160 55 -53 134 -162 134 -186 0 -8 3 -18 7 -22 32 -32 54 -199 39 -311
-3 -27 15 -49 219 -251 229 -227 277 -264 376 -294 52 -16 181 -20 229 -8 100
26 139 49 220 129 104 101 150 241 127 384 -12 73 -16 85 -49 146 -27 51 -131
161 -611 641 -318 319 -577 583 -575 588 4 10 73 86 86 94 6 3 271 -254 589
-572 424 -424 593 -586 634 -610 78 -44 155 -62 247 -57 124 6 208 42 293 125
101 99 138 188 141 340 1 55 -15 118 -47 186 -33 67 -69 106 -631 668 l-596
597 38 43 c22 24 44 45 51 45 6 1 249 -237 540 -527 477 -477 534 -531 593
-559 101 -48 179 -58 307 -39 66 10 163 65 226 128 39 40 97 133 97 157 0 11
5 23 10 26 6 4 8 10 5 15 -3 5 -1 11 4 14 4 3 9 46 9 95 0 97 -23 182 -70 256
-14 23 -589 605 -1277 1294 l-1252 1252 -409 -408 c-225 -225 -434 -426 -464
-446 -67 -44 -129 -70 -211 -87 -62 -13 -181 -15 -225 -5 -14 4 -36 8 -49 10
-14 2 -34 8 -45 13 -12 5 -34 15 -51 23 -113 51 -234 163 -284 265 -46 91 -69
192 -66 294 2 52 6 108 10 124 15 69 73 187 119 243 6 8 192 196 414 418 221
222 402 407 402 410 0 14 -242 244 -325 310 -27 21 -54 44 -60 49 -13 14 -165
115 -225 149 -42 25 -231 119 -275 137 -54 23 -185 70 -206 74 -13 2 -46 11
-74 20 -55 16 -74 21 -185 42 -140 27 -231 35 -393 38 -76 1 -139 1 -140 0z"/>
<path d="M6157 7854 c-1 -2 -34 -5 -72 -8 -103 -8 -199 -23 -330 -51 -277 -59
-601 -209 -847 -393 -51 -39 -106 -82 -121 -96 -15 -14 -30 -26 -33 -26 -3 0
-269 -265 -593 -588 -538 -538 -590 -593 -621 -656 -37 -75 -38 -79 -47 -180
-11 -130 37 -255 134 -351 147 -144 365 -171 550 -67 29 16 219 199 510 490
256 255 468 461 471 458 4 -4 591 -590 1304 -1303 l1297 -1297 113 115 c127
129 216 232 268 309 8 12 21 28 28 36 6 7 12 15 12 18 0 4 16 29 35 56 19 27
35 54 35 59 0 5 7 14 15 21 8 7 15 21 15 31 0 11 4 19 8 19 17 0 120 231 167
375 32 96 48 151 59 205 3 14 10 45 16 70 5 25 12 65 15 90 3 25 8 56 11 70
26 134 19 542 -11 666 -2 12 -7 39 -11 60 -3 21 -17 82 -30 134 -14 52 -26
102 -28 110 -9 36 -77 211 -105 272 -17 38 -32 71 -33 75 -1 5 -14 29 -28 54
-15 25 -35 61 -44 81 -9 19 -26 45 -36 56 -11 12 -20 25 -20 29 -1 13 -120
175 -180 245 -52 61 -227 237 -266 268 -10 8 -39 31 -64 50 -25 19 -47 38 -50
41 -3 3 -50 35 -106 72 -113 75 -293 170 -399 211 -38 15 -79 31 -90 36 -17 7
-90 32 -105 35 -3 1 -25 7 -50 14 -25 7 -56 15 -70 17 -14 3 -38 9 -55 14 -16
5 -46 11 -65 14 -19 3 -46 8 -60 11 -30 5 -107 15 -175 21 -52 5 -315 11 -318
8z"/>
<path d="M2250 4607 c-3 -3 -23 -7 -45 -10 -22 -3 -59 -12 -83 -21 -79 -29
-71 -22 -579 -542 -326 -334 -332 -342 -363 -464 -36 -145 2 -303 102 -415 18
-21 60 -55 92 -76 51 -34 83 -47 156 -66 25 -7 144 -10 155 -4 5 2 23 6 39 8
46 5 145 55 191 96 22 19 96 90 165 157 69 67 228 221 354 343 206 200 296
304 296 340 0 7 4 17 9 23 38 41 38 277 0 319 -5 5 -9 15 -9 23 0 22 -59 104
-109 150 -58 55 -109 85 -189 111 -59 20 -172 37 -182 28z"/>
<path d="M3205 4032 c-42 -7 -131 -36 -145 -47 -8 -6 -28 -17 -43 -25 -28 -14
-1128 -1100 -1115 -1100 4 0 -3 -16 -17 -36 -58 -85 -78 -284 -36 -362 5 -9
10 -21 11 -27 9 -41 69 -128 119 -173 75 -67 193 -113 296 -114 65 -1 198 27
218 46 7 6 28 20 47 30 39 22 45 28 652 632 246 244 459 463 473 487 48 83 64
149 61 250 -2 73 -8 106 -31 161 -50 122 -176 232 -304 266 -45 12 -150 19
-186 12z"/>
<path d="M3912 3269 c-65 -19 -104 -36 -147 -64 -34 -22 -965 -944 -1092
-1079 -22 -24 -62 -112 -77 -166 -19 -74 -13 -197 13 -255 11 -25 18 -45 15
-45 -11 0 72 -109 110 -143 35 -34 120 -86 143 -88 5 -1 15 -5 24 -9 22 -12
105 -23 163 -22 90 2 204 45 270 102 16 14 144 139 285 278 778 770 792 783
833 875 35 77 44 210 20 297 -13 46 -34 93 -47 102 -5 4 -7 8 -3 8 11 0 -19
37 -78 96 -109 109 -285 155 -432 113z"/>
<path d="M4540 2394 c-25 -8 -52 -17 -60 -20 -8 -3 -17 -6 -20 -6 -31 -4 -182
-143 -525 -485 -433 -430 -442 -441 -475 -563 -38 -141 13 -322 120 -427 39
-40 136 -103 165 -110 5 -1 35 -8 65 -15 171 -41 302 6 470 168 338 327 750
745 773 784 58 101 76 210 52 325 -17 79 -65 173 -114 222 -41 40 -122 94
-166 110 -16 6 -39 14 -50 19 -37 13 -188 12 -235 -2z"/>
<path d="M5200 1701 c0 -6 -8 -19 -18 -29 -10 -10 -25 -28 -34 -41 -27 -38
-195 -216 -382 -403 l-177 -178 48 -52 c144 -159 225 -215 340 -234 50 -9 198
-5 198 5 0 2 9 4 20 6 28 5 98 38 113 52 7 7 17 13 22 13 23 0 146 146 155
184 1 6 7 23 13 37 42 102 32 243 -24 356 -35 70 -274 318 -274 284z"/>
</g>
</svg>
