<?xml version="1.0" encoding="UTF-8" standalone="no"?>
<svg
   xmlns:dc="http://purl.org/dc/elements/1.1/"
   xmlns:cc="http://creativecommons.org/ns#"
   xmlns:rdf="http://www.w3.org/1999/02/22-rdf-syntax-ns#"
   xmlns:svg="http://www.w3.org/2000/svg"
   xmlns="http://www.w3.org/2000/svg"
   xmlns:sodipodi="http://sodipodi.sourceforge.net/DTD/sodipodi-0.dtd"
   xmlns:inkscape="http://www.inkscape.org/namespaces/inkscape"
   enable-background="new 0 0 24 24"
   id="Layer_1"
   version="1.0"
   viewBox="0 0 24 24"
   xml:space="preserve"
   inkscape:version="0.91 r13725"
   sodipodi:docname="1466037836_football.svg"><metadata
     id="metadata19"><rdf:RDF><cc:Work
         rdf:about=""><dc:format>image/svg+xml</dc:format><dc:type
           rdf:resource="http://purl.org/dc/dcmitype/StillImage" /></cc:Work></rdf:RDF></metadata><defs
     id="defs17" /><sodipodi:namedview
     pagecolor="#ffffff"
     bordercolor="#666666"
     borderopacity="1"
     objecttolerance="10"
     gridtolerance="10"
     guidetolerance="10"
     inkscape:pageopacity="0"
     inkscape:pageshadow="2"
     inkscape:window-width="1366"
     inkscape:window-height="711"
     id="namedview15"
     showgrid="false"
     inkscape:zoom="9.8333333"
     inkscape:cx="7.6271186"
     inkscape:cy="12"
     inkscape:window-x="0"
     inkscape:window-y="25"
     inkscape:window-maximized="1"
     inkscape:current-layer="Layer_1" /><path
     inkscape:connector-curvature="0"
     d="M 8,20 A 2,2 0 0 1 6,22 2,2 0 0 1 4,20 2,2 0 0 1 6,18 2,2 0 0 1 8,20 Z"
     id="circle3"
     style="fill:#3e606f;fill-opacity:1" /><path
     inkscape:connector-curvature="0"
     d="M 16,4 A 2,2 0 0 1 14,6 2,2 0 0 1 12,4 2,2 0 0 1 14,2 2,2 0 0 1 16,4 Z"
     id="circle5"
     style="fill:#3e606f;fill-opacity:1" /><path
     inkscape:connector-curvature="0"
     d="m 15.6,9.1 -2.1,5.4 -4.8,-1.3 1.8,-4.4 0.7,-2.4 4,1.1 z"
     id="polygon7"
     style="stroke:none;stroke-opacity:1;fill:#3e606f;fill-opacity:1" /><path
     style="fill:none;stroke:#3e606f;stroke-width:2;stroke-miterlimit:10;stroke-opacity:1"
     inkscape:connector-curvature="0"
     d="M 7.2,11.6 7.7,10.5 C 8.2,9.4 9,8.5 10,7.9 l 0,0 c 0.8,-0.5 1.7,-0.7 2.7,-0.5 l 1.7,0.4 c 0.7,0.1 1.3,0.4 2,0.7 L 21,11"
     stroke-miterlimit="10"
     id="path9" /><path
     inkscape:connector-curvature="0"
     style="fill:none;stroke:#3e606f;stroke-width:2;stroke-linejoin:round;stroke-miterlimit:10;stroke-opacity:1"
     d="M 13.2,12.5 10,21"
     id="line11" /><path
     inkscape:connector-curvature="0"
     style="fill:none;stroke:#3e606f;stroke-width:2;stroke-linejoin:round;stroke-miterlimit:10;stroke-opacity:1"
     d="M 10.8,11 8.5,16.1"
     id="line13" /></svg>