<?xml version="1.0" encoding="UTF-8" standalone="no"?>
<svg
   xmlns:dc="http://purl.org/dc/elements/1.1/"
   xmlns:cc="http://creativecommons.org/ns#"
   xmlns:rdf="http://www.w3.org/1999/02/22-rdf-syntax-ns#"
   xmlns:svg="http://www.w3.org/2000/svg"
   xmlns="http://www.w3.org/2000/svg"
   xmlns:sodipodi="http://sodipodi.sourceforge.net/DTD/sodipodi-0.dtd"
   xmlns:inkscape="http://www.inkscape.org/namespaces/inkscape"
   enable-background="new 0 0 500 500"
   id="Layer_1"
   version="1.1"
   viewBox="0 0 500 500"
   xml:space="preserve"
   inkscape:version="0.91 r13725"
   sodipodi:docname="it.svg"><metadata
     id="metadata17"><rdf:RDF><cc:Work
         rdf:about=""><dc:format>image/svg+xml</dc:format><dc:type
           rdf:resource="http://purl.org/dc/dcmitype/StillImage" /></cc:Work></rdf:RDF></metadata><defs
     id="defs15" /><sodipodi:namedview
     pagecolor="#ffffff"
     bordercolor="#666666"
     borderopacity="1"
     objecttolerance="10"
     gridtolerance="10"
     guidetolerance="10"
     inkscape:pageopacity="0"
     inkscape:pageshadow="2"
     inkscape:window-width="1366"
     inkscape:window-height="711"
     id="namedview13"
     showgrid="false"
     inkscape:zoom="0.472"
     inkscape:cx="30.720339"
     inkscape:cy="250"
     inkscape:window-x="0"
     inkscape:window-y="25"
     inkscape:window-maximized="1"
     inkscape:current-layer="Layer_1" /><path
     d="M50.1,317.3V110c0-8.3,6.8-15,15-15h371.7  c8.3,0,15,6.8,15,15v207.3"
     stroke-miterlimit="10"
     id="path3"
     stroke-width="22"
     stroke="#000000"
     fill="#FFFFFF"
     style="stroke:#3e606f;stroke-opacity:1" /><path
     d="M465.6,387.1h-431c-8.2,0-15-6.8-15-15v-6.4c0-8.3,6.8-15,15-15h431c8.3,0,15,6.8,15,15v6.4  C480.6,380.3,473.9,387.1,465.6,387.1z"
     id="path5"
     style="fill:#3e606f;fill-opacity:1" /><path
     d="M248.7,101.7L248.7,101.7c-2.6,0-4.7-2.1-4.7-4.7v0c0-2.6,2.1-4.7,4.7-4.7h0c2.6,0,4.7,2.1,4.7,4.7v0  C253.3,99.6,251.2,101.7,248.7,101.7z"
     fill="#FFFFFF"
     id="path7" /><polygon
     points="479.1,359.3 20.7,360.1 39.2,316.6 462.8,316.6 "
     id="polygon9"
     style="stroke:#3e606f;stroke-opacity:1;fill:#3e606f;fill-opacity:1" /><path
     d="M281.8,376.2h-61.6c-5.7,0-10.3-4.6-10.3-10.3v-4.1c0-5.7,4.6-10.3,10.3-10.3h61.6c5.7,0,10.3,4.6,10.3,10.3  v4.1C292.1,371.6,287.5,376.2,281.8,376.2z"
     fill="#FFFFFF"
     id="path11" /></svg>