<?xml version="1.0" encoding="UTF-8" standalone="no"?>
<!-- Generator: Adobe Illustrator 18.1.1, SVG Export Plug-In . SVG Version: 6.00 Build 0)  -->

<svg
   xmlns:dc="http://purl.org/dc/elements/1.1/"
   xmlns:cc="http://creativecommons.org/ns#"
   xmlns:rdf="http://www.w3.org/1999/02/22-rdf-syntax-ns#"
   xmlns:svg="http://www.w3.org/2000/svg"
   xmlns="http://www.w3.org/2000/svg"
   xmlns:sodipodi="http://sodipodi.sourceforge.net/DTD/sodipodi-0.dtd"
   xmlns:inkscape="http://www.inkscape.org/namespaces/inkscape"
   version="1.1"
   id="Capa_1"
   x="0px"
   y="0px"
   viewBox="0 0 178.999 178.999"
   style="enable-background:new 0 0 178.999 178.999;"
   xml:space="preserve"
   width="512px"
   height="512px"
   inkscape:version="0.91 r13725"
   sodipodi:docname="fundrising.svg"><metadata
     id="metadata41"><rdf:RDF><cc:Work
         rdf:about=""><dc:format>image/svg+xml</dc:format><dc:type
           rdf:resource="http://purl.org/dc/dcmitype/StillImage" /><dc:title></dc:title></cc:Work></rdf:RDF></metadata><defs
     id="defs39" /><sodipodi:namedview
     pagecolor="#ffffff"
     bordercolor="#666666"
     borderopacity="1"
     objecttolerance="10"
     gridtolerance="10"
     guidetolerance="10"
     inkscape:pageopacity="0"
     inkscape:pageshadow="2"
     inkscape:window-width="1366"
     inkscape:window-height="711"
     id="namedview37"
     showgrid="false"
     inkscape:zoom="0.4609375"
     inkscape:cx="31.457627"
     inkscape:cy="256"
     inkscape:window-x="0"
     inkscape:window-y="25"
     inkscape:window-maximized="1"
     inkscape:current-layer="Capa_1" /><g
     id="g3"
     style="fill:#3e606f;fill-opacity:1"><path
       d="M142.208,123.812c2.124-2.625,2.977-5.931,2.446-9.553c-0.668-4.589-2.804-7.584-5.49-9.559   c1.921-4.35,3.222-9.153,3.735-14.547h-9.493c-0.746,4.368-1.82,8.067-3.18,11.122c-2.685-0.406-5.096-0.406-6.575-0.406   c-3.097,0-6.313,0.209-9.41,0.406c-4.177,0.269-8.312,0.573-11.761,0.245c-3.222-0.31-6.498-0.877-9.762-1.575   c-1.175-2.685-2.1-5.615-2.697-8.861h30.455l2.44-8.276H89.151c-0.036-0.931-0.06-1.897-0.06-2.912c0-2.214,0.06-4.308,0.173-6.289   h31.207l2.44-8.27H90.434c1.044-5.161,2.769-9.368,5.179-12.632c4.344-5.937,10.072-8.909,17.173-8.909   c5.782,0,10.287,1.617,13.515,4.845c3.216,3.216,5.358,7.584,6.402,13.097h9.493c-0.549-7.262-3.33-13.748-8.36-19.452   c-5.024-5.71-12.071-8.568-21.164-8.568c-10.669,0-19.028,4.392-25.085,13.157c-3.604,5.209-6.068,11.361-7.387,18.461H67.861   l-2.446,8.27h13.849c-0.078,1.438-0.119,2.858-0.119,4.308c0,1.671,0.036,3.312,0.119,4.893H67.855l-2.446,8.276h14.667   c0.328,2.196,0.788,4.231,1.295,6.223c-8.008-1.886-15.621-3.401-22.573-2.53c-3.831,0.495-7.536,1.539-11.14,2.948   c-1.85-5.997-2.852-12.369-2.852-18.969c0-35.503,28.784-64.281,64.281-64.281c35.503,0,64.287,28.778,64.287,64.281   c0,9.911-2.315,19.267-6.325,27.65c-0.871,0.43-1.766,0.919-2.691,1.492c-4.338,2.667-7.805,7.441-11.486,12.495   c-4.594,6.331-9.332,12.847-15.287,14.499c-3.532,0.967-8.73-1.026-14.231-3.604C131.396,130.322,138.461,128.442,142.208,123.812z    M166.685,111.657c-8.777,5.388-15.311,23.999-27.913,27.471c-9.774,2.703-22.561-8.377-34.435-10.758   c15.162-1.325,37.854-0.621,35.974-13.485c-2.166-14.858-24.834-7.751-38.224-8.998c-15.216-1.414-30.55-8.312-42.717-6.749   c-23.408,3.025-43.558,28.76-59.37,35.449l29.488,29.488c31.917-18.7,77.516,11.403,119.809-4.242   c16.224-6.009,24.434-23.629,29.22-42.717C180.444,109.485,176.613,105.553,166.685,111.657z"
       fill="#933EC5"
       id="path5"
       style="fill:#3e606f;fill-opacity:1" /></g><g
     id="g7" /><g
     id="g9" /><g
     id="g11" /><g
     id="g13" /><g
     id="g15" /><g
     id="g17" /><g
     id="g19" /><g
     id="g21" /><g
     id="g23" /><g
     id="g25" /><g
     id="g27" /><g
     id="g29" /><g
     id="g31" /><g
     id="g33" /><g
     id="g35" /></svg>