<?xml version="1.0" encoding="UTF-8" standalone="no"?>
<svg
   xmlns:dc="http://purl.org/dc/elements/1.1/"
   xmlns:cc="http://creativecommons.org/ns#"
   xmlns:rdf="http://www.w3.org/1999/02/22-rdf-syntax-ns#"
   xmlns:svg="http://www.w3.org/2000/svg"
   xmlns="http://www.w3.org/2000/svg"
   xmlns:sodipodi="http://sodipodi.sourceforge.net/DTD/sodipodi-0.dtd"
   xmlns:inkscape="http://www.inkscape.org/namespaces/inkscape"
   enable-background="new 0 0 512 512"
   height="512px"
   id="Layer_1"
   version="1.1"
   viewBox="0 0 512 512"
   width="512px"
   xml:space="preserve"
   inkscape:version="0.91 r13725"
   sodipodi:docname="1466037790_chat.svg"><metadata
     id="metadata9"><rdf:RDF><cc:Work
         rdf:about=""><dc:format>image/svg+xml</dc:format><dc:type
           rdf:resource="http://purl.org/dc/dcmitype/StillImage" /></cc:Work></rdf:RDF></metadata><defs
     id="defs7" /><sodipodi:namedview
     pagecolor="#ffffff"
     bordercolor="#666666"
     borderopacity="1"
     objecttolerance="10"
     gridtolerance="10"
     guidetolerance="10"
     inkscape:pageopacity="0"
     inkscape:pageshadow="2"
     inkscape:window-width="1366"
     inkscape:window-height="711"
     id="namedview5"
     showgrid="false"
     inkscape:zoom="0.4609375"
     inkscape:cx="162.71186"
     inkscape:cy="256"
     inkscape:window-x="0"
     inkscape:window-y="25"
     inkscape:window-maximized="1"
     inkscape:current-layer="Layer_1" /><path
     d="M160.895,179.731C73.385,178.013,1.368,231.937,0.019,300.177c-0.462,23.726,7.676,46.066,22.146,65.172  c24.924,32-2.277,87.08-2.277,87.08l80.333-34.609c17.287,5.478,36.116,8.679,55.816,9.066  c87.51,1.742,159.565-52.225,160.877-120.498C318.263,238.188,248.426,181.446,160.895,179.731 M489.814,245.209L489.814,245.209  c14.486-19.115,22.649-41.441,22.166-65.17c-1.333-68.235-73.408-122.199-160.918-120.424  c-73.329,1.43-134.276,41.539-151.271,94.632c34.244,6.461,65.672,20.491,91.001,41.052c36.541,29.676,56.257,69.241,55.542,111.39  c3.185,0.068,6.386,0.104,9.589,0c19.736-0.302,38.525-3.505,55.851-9.025l80.313,34.616  C492.088,332.279,464.886,277.215,489.814,245.209"
     id="path3"
     style="stroke:none;stroke-opacity:1;fill:#3e606f;fill-opacity:1" /></svg>